<svg width="41" height="41" viewBox="0 0 41 41" fill="none" xmlns="http://www.w3.org/2000/svg">
<path d="M32.5918 41H8.4082C3.77192 41 0 37.2281 0 32.5918V8.4082C0 3.77192 3.77192 0 8.4082 0H32.5918C37.2281 0 41 3.77192 41 8.4082V32.5918C41 37.2281 37.2281 41 32.5918 41Z" fill="#00C3FF"/>
<path d="M32.5918 0H20.5V41H32.5918C37.2281 41 41 37.2281 41 32.5918V8.4082C41 3.77192 37.2281 0 32.5918 0Z" fill="#00AAF0"/>
<path d="M12.6242 31.592C12.2539 32.2335 11.5795 32.5925 10.8871 32.5926C10.5476 32.5926 10.204 32.5064 9.88948 32.3248C8.93351 31.7729 8.60479 30.5461 9.15669 29.5901L9.55043 28.9082H14.1737L12.6242 31.592Z" fill="white"/>
<path d="M8.84863 27.3066C7.74476 27.3066 6.84668 26.4085 6.84668 25.3047C6.84668 24.2008 7.74476 23.3027 8.84863 23.3027H12.7867L18.1883 13.9469L16.7244 11.4113C16.1725 10.4553 16.5011 9.2285 17.4571 8.67652H17.4572C18.4132 8.12463 19.64 8.45343 20.1919 9.40932L20.5 9.94304L20.8081 9.4094C21.3603 8.45335 22.5871 8.12471 23.5428 8.6766C24.0059 8.94399 24.3372 9.37569 24.4756 9.89219C24.614 10.4087 24.5429 10.9483 24.2755 11.4114L17.41 23.3027H21.7406L24.0523 27.3066H8.84863Z" fill="white"/>
<path d="M32.1514 27.3066H30.5249L31.8432 29.59C32.3952 30.5459 32.0665 31.7727 31.1106 32.3247C30.802 32.5028 30.4596 32.5938 30.1127 32.5938C29.9388 32.5938 29.7639 32.571 29.5913 32.5247C29.0748 32.3863 28.6431 32.055 28.3757 31.5918L21.4246 19.5522L23.7362 15.5483L28.2133 23.3027H32.1514C33.2552 23.3027 34.1533 24.2008 34.1533 25.3047C34.1533 26.4085 33.2552 27.3066 32.1514 27.3066Z" fill="#F2F2F2"/>
<path d="M20.5 23.3027V27.3066H24.0523L21.7407 23.3027H20.5Z" fill="#F2F2F2"/>
<path d="M24.4756 9.8921C24.3371 9.3756 24.0059 8.94382 23.5428 8.67652C22.587 8.12462 21.3602 8.45318 20.8081 9.40931L20.5 9.94295V17.9508L24.2755 11.4113C24.5429 10.9482 24.614 10.4087 24.4756 9.8921Z" fill="#F2F2F2"/>
</svg>
