<svg width="50" height="50" viewBox="0 0 50 50" fill="none" xmlns="http://www.w3.org/2000/svg">
<path d="M32.4511 13.3024H17.5489C15.1702 13.3024 13.235 15.2376 13.235 17.6163V32.5185C13.235 34.8972 15.1702 36.8329 17.5489 36.8329H32.4511C34.8298 36.8329 36.7655 34.8977 36.7655 32.5185V17.6163C36.7655 15.2376 34.8303 13.3024 32.4511 13.3024ZM25 32.8138C20.7291 32.8138 17.2542 29.3389 17.2542 25.0674C17.2542 20.7965 20.7291 17.3216 25 17.3216C29.2715 17.3216 32.7464 20.7965 32.7464 25.0674C32.7464 29.3383 29.2709 32.8138 25 32.8138ZM32.9954 18.9231C31.9843 18.9231 31.1621 18.1009 31.1621 17.0904C31.1621 16.0799 31.9843 15.2577 32.9954 15.2577C34.0059 15.2577 34.8281 16.0799 34.8281 17.0904C34.8281 18.1009 34.0059 18.9231 32.9954 18.9231Z" fill="#6A453B"/>
<path d="M25 20.5948C22.5345 20.5948 20.5269 22.6014 20.5269 25.0669C20.5269 27.5335 22.5345 29.5406 25 29.5406C27.4666 29.5406 29.4726 27.5335 29.4726 25.0669C29.4726 22.6019 27.4661 20.5948 25 20.5948Z" fill="#6A453B"/>
<path d="M25 0C11.1934 0 0 11.1934 0 25C0 38.8066 11.1934 50 25 50C38.8066 50 50 38.8066 50 25C50 11.1934 38.8066 0 25 0ZM40.0382 32.5185C40.0382 36.7026 36.6352 40.1056 32.4511 40.1056H17.5489C13.3654 40.1056 9.96179 36.7026 9.96179 32.5185V17.6163C9.96179 13.4328 13.3654 10.0292 17.5489 10.0292H32.4511C36.6352 10.0292 40.0382 13.4328 40.0382 17.6163V32.5185Z" fill="#6A453B"/>
</svg>
