<svg width="41" height="41" viewBox="0 0 41 41" fill="none" xmlns="http://www.w3.org/2000/svg">
<g clip-path="url(#clip0)">
<path d="M30.6194 14.0636C25.8566 11.3996 18.212 7.12193 6.35461 0.482723C5.55519 -0.0452333 4.63541 -0.114421 3.84071 0.154562L24.1846 20.4984L30.6194 14.0636Z" fill="#32BBFF"/>
<path d="M3.84071 0.154541C3.69176 0.20499 3.54682 0.26585 3.40821 0.339362C2.53063 0.814066 1.88576 1.72752 1.88576 2.88281V38.1141C1.88576 39.2693 2.53055 40.1828 3.40821 40.6574C3.54658 40.7309 3.69144 40.792 3.84023 40.8427L24.1846 20.4984L3.84071 0.154541Z" fill="#32BBFF"/>
<path d="M24.1846 20.4985L3.84023 40.8428C4.63516 41.1137 5.55494 41.0498 6.3546 40.5142C17.8537 34.0751 25.4121 29.8481 30.2301 27.1615C30.3642 27.0861 30.4957 27.0124 30.6255 26.9395L24.1846 20.4985Z" fill="#32BBFF"/>
<path d="M1.88576 20.4985V38.1141C1.88576 39.2694 2.53055 40.1828 3.40821 40.6575C3.54658 40.7309 3.69144 40.792 3.84023 40.8428L24.1846 20.4985H1.88576Z" fill="#2C9FD9"/>
<path d="M6.3546 0.482705C5.40528 -0.144148 4.28578 -0.126291 3.4082 0.339445L23.8758 20.8071L30.6194 14.0636C25.8566 11.3996 18.212 7.12192 6.3546 0.482705Z" fill="#29CC5E"/>
<path d="M23.876 20.1898L3.4082 40.6574C4.28586 41.1231 5.40528 41.15 6.3546 40.5142C17.8537 34.0751 25.4121 29.8481 30.2301 27.1614C30.3642 27.0861 30.4956 27.0124 30.6255 26.9395L23.876 20.1898Z" fill="#D93F21"/>
<path d="M39.1142 20.4984C39.1142 19.5223 38.6217 18.5372 37.6454 17.9909C37.6454 17.9909 35.8197 16.9722 30.2236 13.8421L23.5673 20.4984L30.2301 27.1614C35.7648 24.0538 37.6454 23.0059 37.6454 23.0059C38.6217 22.4597 39.1142 21.4746 39.1142 20.4984Z" fill="#FFD500"/>
<path d="M37.6454 23.006C38.6217 22.4598 39.1142 21.4746 39.1142 20.4985H23.5673L30.2301 27.1614C35.7649 24.0539 37.6454 23.006 37.6454 23.006Z" fill="#FFAA00"/>
</g>
<defs>
<clipPath id="clip0">
<rect width="41" height="41" fill="white"/>
</clipPath>
</defs>
</svg>
